<svg version="1.1" id="Layer_1" xmlns="http://www.w3.org/2000/svg" xmlns:xlink="http://www.w3.org/1999/xlink" x="0px" y="0px"
	 width="100%" viewBox="0 0 256 192" enable-background="new 0 0 256 192" xml:space="preserve">
<path fill="#000000" opacity="1.000000" stroke="none" 
	d="
M130.379944,59.619900 
	C140.170334,47.821053 161.185516,49.640751 167.749588,62.555126 
	C168.521210,64.073219 170.005234,65.776833 167.642548,67.315483 
	C165.099396,68.971664 164.241394,67.078278 163.049332,65.347618 
	C158.205032,58.314526 151.155853,55.342888 144.228058,57.365887 
	C140.723907,58.389141 137.710114,60.042400 137.136337,64.172829 
	C136.556488,68.347076 138.950989,70.848267 142.267105,72.452461 
	C147.207489,74.842415 152.320969,76.872429 157.335785,79.111588 
	C159.920715,80.265770 162.496460,81.455933 164.999100,82.776291 
	C175.041443,88.074547 181.680267,95.636147 182.451355,107.627998 
	C183.322449,121.174980 178.077240,131.586227 166.449310,138.072266 
	C150.200333,147.135925 133.483627,146.915604 117.529999,137.272903 
	C107.940498,131.476822 103.194160,122.191353 102.683220,110.955177 
	C102.449753,105.820900 102.493492,100.668335 103.397079,95.646935 
	C97.080292,92.922989 94.328697,93.805771 91.687729,99.291611 
	C89.809319,103.193466 87.913216,107.089211 86.150970,111.043816 
	C84.727577,114.238022 82.613182,115.204247 78.896301,113.412804 
	C81.649406,107.363182 84.379929,101.363190 87.210144,95.144135 
	C84.578705,93.545959 81.613670,95.333435 79.342995,93.694580 
	C79.282028,89.654984 82.014221,89.436012 84.766800,89.712944 
	C88.463264,90.084824 90.425583,88.620087 91.951401,85.184509 
	C96.277245,75.444260 100.985527,65.872810 105.613770,56.268894 
	C106.441414,54.551476 106.826546,52.094524 109.282478,52.001160 
	C111.855209,51.903351 112.199692,54.420921 112.990295,56.135303 
	C121.290031,74.132927 129.531631,92.157379 137.777084,110.180000 
	C138.250809,111.215462 138.618637,112.299377 139.038101,113.366714 
	C131.365738,116.072769 128.600616,114.940071 125.372124,107.923454 
	C120.290512,96.879379 115.218758,85.830727 110.113487,74.797585 
	C109.222610,72.872284 108.187454,71.013741 106.629875,67.975250 
	C103.011261,75.435043 99.870964,81.908775 96.576233,88.700882 
	C101.344345,90.758827 106.151260,88.704971 110.946632,90.343895 
	C109.727516,94.642609 108.431465,98.873985 107.918648,103.331184 
	C105.871742,121.122299 118.904076,137.282288 136.808685,138.637115 
	C143.477798,139.141754 150.159302,139.112183 156.521347,136.602737 
	C165.548004,133.042267 171.449356,126.901466 172.765640,116.892639 
	C174.152252,106.349174 169.923859,98.858162 160.853394,93.672905 
	C155.185822,90.432961 149.038971,88.284126 143.190369,85.468269 
	C140.942963,84.386238 138.658035,83.348518 136.527740,82.062729 
	C127.600624,76.674515 125.581886,69.531090 130.379944,59.619900 
z"/>
</svg>